<?xml version="1.0" encoding="utf-8"?>
<!-- Generator: Adobe Illustrator 27.3.1, SVG Export Plug-In . SVG Version: 6.00 Build 0)  -->
<svg version="1.1" id="Layer_1" xmlns="http://www.w3.org/2000/svg" xmlns:xlink="http://www.w3.org/1999/xlink" x="0px" y="0px"
	 viewBox="0 0 101.82 62.57" style="enable-background:new 0 0 101.82 62.57;" xml:space="preserve">
<style type="text/css">
	.st0{fill:#3EBFEE;}
	.st1{fill:#4599D4;}
	.st2{fill:#34ABE0;}
	.st3{fill:#2770B7;}
	.st4{fill:#296297;}
	.st5{fill:#010202;}
	.st6{fill:#FFFFFF;}
</style>
<g>
	<g>
		<path class="st0" d="M19.37,21.35c0,0,6.88-10.7,17.64-12.02c0,0,3.29-1.08,13.93,0.78S68.71,9.81,76.19,0l-2.21,6.64
			c0,0-4.9,5.38-12.5,6.1c-7.6,0.72-15.19-3.77-25.95-2.06C35.52,10.67,26.79,11.72,19.37,21.35z"/>
		<path class="st1" d="M74.88,11.59c0,0-6.7,6.11-15.55,4.65c-8.85-1.47-17.61-5.28-23.58-3.86s-9.39,3.82-9.39,3.82
			s7.68-5.38,17.41-2.64s14.72,5.28,22.01,4.6c0,0,3.38-0.39,6.21-1.91L74.88,11.59z"/>
		<path class="st2" d="M72.73,19.42c0,0-4.16,2.35-10.37,1.71c-6.21-0.64-14.59-4.55-14.59-4.55s-8.79-3.38-14.42-1.13
			c0,0,7.24-2.25,17.27,3.08s17.76,4.6,19.42,3.91L72.73,19.42z"/>
		<path class="st3" d="M51.45,21.35c-10.52-5.26-14.23-4.53-14.23-4.53s5.18-0.1,14.04,5.43s14.18,5.54,14.18,5.54l2.89-1.82
			C61.43,27.58,51.45,21.35,51.45,21.35z"/>
		<path class="st4" d="M47.5,22.72c-6.04-3.99-8.17-3.92-8.17-3.92c1.17,0.02,6.99,3.16,11.1,6.68S60.5,31.4,60.5,31.4l2.35-0.78
			C57.73,29.84,53.53,26.72,47.5,22.72z"/>
	</g>
	<g>
		<path class="st0" d="M4.95,35.2l8.25,10.89V35.2h5.28v19.48h-4.92L5.31,43.84v10.84H0V35.2H4.95z"/>
		<path class="st0" d="M34.87,51.56h-7.86l-1.17,3.11H19.9L28.2,35.2h5.95l8.03,19.48h-6.17L34.87,51.56z M33.34,47.34l-2.33-6.36
			l-2.39,6.36H33.34z"/>
		<path class="st0" d="M58.71,35.2v4.45h-9.34v3.89h8.67v4.45h-8.67v6.7H43.6V35.2H58.71z"/>
		<path class="st0" d="M72.88,51.56h-7.86l-1.17,3.11h-5.95l8.31-19.48h5.95l8.03,19.48h-6.17L72.88,51.56z M71.36,47.34l-2.33-6.36
			l-2.39,6.36H71.36z"/>
		<path class="st0" d="M87.39,35.2v14.64h8.17v4.83H81.61V35.2H87.39z"/>
	</g>
	<g>
		<path class="st5" d="M15.83,61.29l-1.13-2.94h0.42l0.86,2.27l0.88-2.27h0.38l0.88,2.27l0.86-2.27h0.41l-1.12,2.94h-0.31
			l-0.91-2.37l-0.9,2.37H15.83z"/>
		<path class="st5" d="M21.6,61.29v-2.28h0.42v2.28H21.6z"/>
		<path class="st5" d="M24.87,61.29v-2.28h0.22l1.7,1.6v-1.6h0.41v2.28h-0.22l-1.7-1.59v1.59H24.87z"/>
		<path class="st5" d="M30.67,61.29v-1.96h-1.13v-0.32h2.67v0.32h-1.13v1.96H30.67z"/>
		<path class="st5" d="M34.55,61.29v-2.28h2.51v0.33h-2.09v0.57h1.37v0.33h-1.37v0.72h2.2v0.33H34.55z"/>
		<path class="st5" d="M40.11,60.29v0.99h-0.42v-2.27h1.84c0.27,0,0.49,0.06,0.64,0.17c0.15,0.11,0.23,0.27,0.23,0.47
			c0,0.16-0.06,0.3-0.18,0.42s-0.28,0.19-0.48,0.22l0.74,1h-0.45l-0.76-0.99H40.11z M40.11,59.96h1.42c0.14,0,0.25-0.03,0.33-0.08
			c0.08-0.05,0.11-0.13,0.11-0.23s-0.04-0.18-0.11-0.23c-0.08-0.05-0.19-0.08-0.33-0.08h-1.42V59.96z"/>
		<path class="st5" d="M49.21,61.29v-2.96h0.43v2.96H49.21z"/>
		<path class="st5" d="M52.31,61l0.2-0.3c0.18,0.1,0.38,0.19,0.6,0.25s0.42,0.09,0.62,0.09c0.24,0,0.43-0.04,0.58-0.12
			c0.15-0.08,0.22-0.19,0.22-0.32s-0.07-0.23-0.2-0.29c-0.13-0.06-0.34-0.1-0.63-0.11c-0.49-0.01-0.82-0.05-1-0.14
			c-0.18-0.09-0.27-0.24-0.27-0.45c0-0.2,0.1-0.35,0.3-0.47s0.47-0.18,0.8-0.18c0.23,0,0.45,0.03,0.67,0.08
			c0.22,0.05,0.42,0.14,0.62,0.25l-0.21,0.3c-0.17-0.1-0.35-0.17-0.54-0.22c-0.19-0.05-0.38-0.08-0.55-0.08
			c-0.2,0-0.37,0.03-0.49,0.09s-0.18,0.14-0.18,0.24c0,0.1,0.06,0.17,0.19,0.22c0.12,0.04,0.34,0.06,0.65,0.06
			c0.43,0,0.75,0.06,0.96,0.18c0.22,0.12,0.33,0.3,0.33,0.55c0,0.21-0.11,0.39-0.33,0.54c-0.22,0.14-0.5,0.21-0.86,0.21
			c-0.26,0-0.52-0.03-0.77-0.09C52.76,61.2,52.53,61.11,52.31,61z"/>
		<path class="st5" d="M61.76,61.29v-2.94h0.43v1.16h2.04v-1.16h0.43v2.94h-0.43v-1.44h-2.04v1.44H61.76z"/>
		<path class="st5" d="M67.56,61.29v-2.28h2.51v0.33h-2.09v0.57h1.37v0.33h-1.37v0.72h2.2v0.33H67.56z"/>
		<path class="st5" d="M73.13,60.29v0.99h-0.42v-2.27h1.84c0.27,0,0.49,0.06,0.64,0.17c0.15,0.11,0.23,0.27,0.23,0.47
			c0,0.16-0.06,0.3-0.18,0.42s-0.28,0.19-0.48,0.22l0.74,1h-0.45l-0.76-0.99H73.13z M73.13,59.96h1.42c0.14,0,0.25-0.03,0.33-0.08
			c0.08-0.05,0.11-0.13,0.11-0.23s-0.04-0.18-0.11-0.23c-0.08-0.05-0.19-0.08-0.33-0.08h-1.42V59.96z"/>
		<path class="st5" d="M78.1,61.29v-2.28h2.51v0.33h-2.09v0.57h1.37v0.33h-1.37v0.72h2.2v0.33H78.1z"/>
	</g>
	<polygon class="st6" points="101.82,48.32 75.4,48.32 73.18,42.9 101.82,42.9 	"/>
	<g>
		<path d="M77.51,44.17h0.84v1.22h1.28v-1.22h0.84v3.17h-0.84v-1.32h-1.28v1.32h-0.84V44.17z"/>
		<path d="M82.6,44.17h0.89l0.45,1.48c0.11,0.35,0.18,0.67,0.3,1.02h0.02c0.11-0.35,0.19-0.67,0.3-1.02l0.44-1.48h0.86l-1.12,3.17
			h-1.01L82.6,44.17z"/>
		<path d="M88.56,44.17h1.01l1.17,3.17h-0.89l-0.49-1.61c-0.1-0.32-0.2-0.69-0.3-1.02h-0.02c-0.09,0.33-0.19,0.71-0.29,1.02
			l-0.49,1.61h-0.86L88.56,44.17z M88.16,46.03h1.79v0.56h-1.79V46.03z"/>
		<path d="M92.62,45.77c0-1.05,0.82-1.66,1.76-1.66c0.48,0,0.87,0.19,1.12,0.41l-0.44,0.46c-0.19-0.15-0.39-0.25-0.66-0.25
			c-0.51,0-0.91,0.38-0.91,1.02c0,0.65,0.36,1.03,0.9,1.03c0.31,0,0.55-0.13,0.73-0.3l0.44,0.45c-0.31,0.31-0.72,0.47-1.2,0.47
			C93.41,47.4,92.62,46.84,92.62,45.77z"/>
	</g>
</g>
</svg>
